<svg xmlns="http://www.w3.org/2000/svg" viewBox="0 0 640 480">
  <path fill="#fff" d="M0 0h640v480H0z"/>
  <path fill="#d52b1e" d="M0 0h160v480H0zm480 0h160v480H480zM320 144l-14.9 4.8 8-13.8-13.9-4.2 17.2-.1 5.2-14.8 5.2 14.8 17.2.1-13.9 4.2 8 13.8M309.2 177.1l-13.6 9.2 3.6-16.3-12.4-10.7 16.5-1.4 6.5-15.3 6.5 15.3 16.5 1.4-12.4 10.7 3.6 16.3M330.2 213.2l-13.6 9.2 3.6-16.3-12.4-10.7 16.5-1.4 6.5-15.3 6.5 15.3 16.5 1.4-12.4 10.7 3.6 16.3M309.2 249.3l-13.6 9.2 3.6-16.3-12.4-10.7 16.5-1.4 6.5-15.3 6.5 15.3 16.5 1.4-12.4 10.7 3.6 16.3M330.2 285.4l-13.6 9.2 3.6-16.3-12.4-10.7 16.5-1.4 6.5-15.3 6.5 15.3 16.5 1.4-12.4 10.7 3.6 16.3M309.2 321.5l-13.6 9.2 3.6-16.3-12.4-10.7 16.5-1.4 6.5-15.3 6.5 15.3 16.5 1.4-12.4 10.7 3.6 16.3"/>
</svg>

